<svg xmlns="http://www.w3.org/2000/svg" width="41.416" height="48.928" viewBox="0 0 41.416 48.928"><path d="M16.685,20.362a3.021,3.021,0,0,0-3.019,3.02l0,12.645a3.02,3.02,0,1,0,6.039,0V23.38a3.022,3.022,0,0,0-3.022-3.019M41.038,9.006l2.108-3.849a.419.419,0,1,0-.734-.4L40.283,8.643a14.714,14.714,0,0,0-11.821-.006L26.331,4.758a.418.418,0,1,0-.733.4L27.706,9a12.332,12.332,0,0,0-6.94,10.877l27.2,0a12.339,12.339,0,0,0-6.93-10.872M28.179,14.954a1.141,1.141,0,1,1,1.143-1.14,1.141,1.141,0,0,1-1.143,1.14m12.386,0a1.141,1.141,0,1,1,1.139-1.14,1.14,1.14,0,0,1-1.139,1.14M20.878,20.932l0,19.6A3.218,3.218,0,0,0,24.1,43.751H26.3l0,6.691a3.019,3.019,0,1,0,6.039,0l0-6.69h4.077l0,6.691a3.02,3.02,0,1,0,6.04,0l0-6.689,2.2,0a3.223,3.223,0,0,0,3.224-3.223l0-19.6-27,0Zm34.2,2.445a3.019,3.019,0,1,0-6.039,0l0,12.646a3.019,3.019,0,1,0,6.038,0l0-12.645Z" transform="translate(-13.666 -4.536)" fill="#fff"/></svg>