<svg xmlns="http://www.w3.org/2000/svg" width="40.191" height="49.357" viewBox="0 0 40.191 49.357"><g transform="translate(-1.486)"><path d="M34.307,14.44A11.16,11.16,0,0,1,39.64,5.048a11.525,11.525,0,0,0-9.027-4.9c-3.843-.386-7.5,2.265-9.45,2.265S16.2.21,13.02.273A12.072,12.072,0,0,0,2.806,6.457C-1.545,14.011,1.694,25.2,5.936,31.326c2.071,2.992,4.546,6.368,7.791,6.246,3.131-.123,4.309-2.019,8.085-2.019s4.84,2.019,8.151,1.957c3.359-.06,5.5-3.056,7.553-6.061a27.163,27.163,0,0,0,3.416-7.024,10.894,10.894,0,0,1-6.625-9.984h0Z" transform="translate(0.745 11.782)" fill="#fff" fill-rule="evenodd"/><path d="M7.489,7.884A10.872,10.872,0,0,0,10.054,0a11.06,11.06,0,0,0-7.27,3.741A10.32,10.32,0,0,0,.165,11.375,9.157,9.157,0,0,0,7.489,7.884Z" transform="translate(21.354)" fill="#fff" fill-rule="evenodd"/></g></svg>