<svg xmlns="http://www.w3.org/2000/svg" width="191.58" height="100.685" viewBox="0 0 191.58 100.685"><path d="M-92.649-7.971a1.71,1.71,0,0,1,1.52.889,4.6,4.6,0,0,1,.556,2.445A6.993,6.993,0,0,1-91.981-.042,32.073,32.073,0,0,1-99.163,6.59a15.548,15.548,0,0,1-8.6,2.335,13.03,13.03,0,0,1-8.189-2.593q-3.371-2.593-6.409-8.892-2.445-5.039-3.853-7.448a11.708,11.708,0,0,0-2.778-3.446,6.694,6.694,0,0,0-3.372-1.254q-.3,1.556-1.7,9.781-.593,3.7-.741,4.52a13.119,13.119,0,0,1-2.964,6.929q-2.23,2.4-6.75,2.4A14.033,14.033,0,0,1-153.3,6a18.657,18.657,0,0,1-5.89-8.151,32.016,32.016,0,0,1-2.075-11.893q0-12.449,4.332-21.489a31.851,31.851,0,0,1,12.155-13.821,33.892,33.892,0,0,1,18.043-4.779,29.276,29.276,0,0,1,11.93,2.149,15.515,15.515,0,0,1,7.15,5.928,15.886,15.886,0,0,1,2.335,8.521,18.089,18.089,0,0,1-1.964,8.114,20.193,20.193,0,0,1-5.891,7,26.4,26.4,0,0,1-9.559,4.52,11.011,11.011,0,0,1,5.483,3.112,25.892,25.892,0,0,1,3.853,6.3,23.834,23.834,0,0,0,4.112,6.521A6.408,6.408,0,0,0-104.578.1a7.475,7.475,0,0,0,4.52-1.6,35.863,35.863,0,0,0,5.409-5.446A2.6,2.6,0,0,1-92.649-7.971Zm-49.943-6.817a4.168,4.168,0,0,1-3.446-1.186,4.218,4.218,0,0,1-.926-2.668,3.6,3.6,0,0,1,1.149-2.816,3.812,3.812,0,0,1,2.63-1.037h1.852q1.186-7.262,2.223-12.523.963-4.816,6.224-4.816,4.224,0,4.224,3.779a8.151,8.151,0,0,1-.074,1.254l-2.223,12.3a17.864,17.864,0,0,0,7.3-1.927,13.551,13.551,0,0,0,5.261-4.742,12.417,12.417,0,0,0,1.963-6.891A9.054,9.054,0,0,0-119.63-43.4q-3.192-2.668-9.336-2.668a22.541,22.541,0,0,0-12.709,3.594A23.391,23.391,0,0,0-150.16-31.8a43.621,43.621,0,0,0-3.028,17.233,30.234,30.234,0,0,0,.963,8.151A14.114,14.114,0,0,0-149.854-1.3,3.772,3.772,0,0,0-147.186.4a1.858,1.858,0,0,0,1.6-.963,8.618,8.618,0,0,0,1-3.112Zm82.324.593a1.617,1.617,0,0,1,1.482.963,5.13,5.13,0,0,1,.519,2.445q0,3.557-2.149,4.218A33.736,33.736,0,0,1-70.2-4.79a18.5,18.5,0,0,1-5.557,9.967,13.672,13.672,0,0,1-9.411,3.747A13.15,13.15,0,0,1-92.76,6.775a13.648,13.648,0,0,1-4.78-5.7,18.272,18.272,0,0,1-1.63-7.706,22.629,22.629,0,0,1,2.149-10.041,16.881,16.881,0,0,1,5.928-6.891,14.934,14.934,0,0,1,8.373-2.482,11.54,11.54,0,0,1,9.08,3.884,16.662,16.662,0,0,1,4.038,9.6,44.916,44.916,0,0,0,8.3-1.482A4.355,4.355,0,0,1-60.268-14.2Zm-24.3,15.264A5.374,5.374,0,0,0-80.459-.857a10.7,10.7,0,0,0,2.334-5.557,10.229,10.229,0,0,1-3.52-4.07,12.064,12.064,0,0,1-1.228-5.335,12.842,12.842,0,0,1,.228-2.371h-.37a5.814,5.814,0,0,0-4.928,2.85A14.064,14.064,0,0,0-89.906-7.3a10.337,10.337,0,0,0,1.6,6.224,4.6,4.6,0,0,0,3.739,2.149ZM-26.849-14.2a1.617,1.617,0,0,1,1.482.963,5.13,5.13,0,0,1,.519,2.445q0,3.557-2.149,4.218A33.736,33.736,0,0,1-36.778-4.79a18.5,18.5,0,0,1-5.557,9.971,13.672,13.672,0,0,1-9.411,3.743,13.15,13.15,0,0,1-7.595-2.149,13.648,13.648,0,0,1-4.78-5.7,18.273,18.273,0,0,1-1.63-7.706,22.629,22.629,0,0,1,2.143-10.047,16.881,16.881,0,0,1,5.928-6.891,14.934,14.934,0,0,1,8.373-2.482,11.54,11.54,0,0,1,9.078,3.89,16.662,16.662,0,0,1,4.038,9.6,44.916,44.916,0,0,0,8.3-1.482,4.355,4.355,0,0,1,1.043-.147Zm-24.3,15.264A5.374,5.374,0,0,0-47.04-.857a10.7,10.7,0,0,0,2.334-5.557,10.229,10.229,0,0,1-3.519-4.07,12.064,12.064,0,0,1-1.223-5.335,12.841,12.841,0,0,1,.222-2.371h-.37a5.814,5.814,0,0,0-4.928,2.85A14.064,14.064,0,0,0-56.489-7.3a10.337,10.337,0,0,0,1.6,6.224,4.6,4.6,0,0,0,3.739,2.145Zm48.016-9.04a1.71,1.71,0,0,1,1.52.889,4.6,4.6,0,0,1,.555,2.445A6.814,6.814,0,0,1-2.47-.042,31.92,31.92,0,0,1-9.4,6.4a14.841,14.841,0,0,1-8.485,2.519A10.288,10.288,0,0,1-27.552,3Q-30.7-2.932-30.7-12.343a105.353,105.353,0,0,1,2.335-20.6A69.9,69.9,0,0,1-21.476-52.8q4.56-8.3,10.856-8.3a6.285,6.285,0,0,1,5.6,3.3q2.037,3.3,2.038,9.448,0,8.818-4.891,20.451A113.261,113.261,0,0,1-21.143-4.859a8.6,8.6,0,0,0,1.71,4.332,4.017,4.017,0,0,0,3.112,1.3A8.588,8.588,0,0,0-10.986-.971a40.658,40.658,0,0,0,5.86-5.966A2.6,2.6,0,0,1-3.131-7.971Zm-9.114-45.793q-1.71,0-3.853,6.156a101.071,101.071,0,0,0-3.779,15.264,110.5,110.5,0,0,0-1.773,17.482,95.493,95.493,0,0,0,8.368-17.377,47.632,47.632,0,0,0,3.112-15.895q0-5.63-2.075-5.63ZM.716,8.924A8.322,8.322,0,0,1-6.139,5.589,13.707,13.707,0,0,1-8.774-3.154,24.089,24.089,0,0,1-6.038-14.38a23.4,23.4,0,0,1,7.3-8.521,16.46,16.46,0,0,1,9.671-3.224,2.885,2.885,0,0,1,2.185.63,5.323,5.323,0,0,1,.927,2.259,15.135,15.135,0,0,1,3.112-.3,3.9,3.9,0,0,1,2.736.889,3.258,3.258,0,0,1,.963,2.519,40.281,40.281,0,0,1-.741,5.928q-.815,4.52-1.254,8.632a86.461,86.461,0,0,0-.431,9.226A5.8,5.8,0,0,1,17.277,7.7a4.941,4.941,0,0,1-3.741,1.223A5.093,5.093,0,0,1,9.793,7.7,5.442,5.442,0,0,1,8.569,3.736L8.643,2.55Q6.348,8.924.716,8.924ZM3.606,1.44q2.075,0,3.779-2.89t3.038-10.3l1.408-7.484A8.751,8.751,0,0,0,6.2-16.9a15.929,15.929,0,0,0-4.144,5.966A20.078,20.078,0,0,0,.494-3.075,5.611,5.611,0,0,0,1.345.3a2.678,2.678,0,0,0,2.261,1.14Z" transform="matrix(0.985, -0.174, 0.174, 0.985, 169.479, 63.813)" fill="#fff"/></svg>